<svg width="24" height="24" viewBox="0 0 24 24" fill="none" xmlns="http://www.w3.org/2000/svg">
<g clip-path="url(#clip0_1_162)">
<path d="M20.317 4.49295C18.787 3.80295 17.147 3.29295 15.432 3.00295C15.4167 3.00002 15.4009 3.00191 15.3868 3.00836C15.3726 3.01481 15.3608 3.0255 15.353 3.03895C15.143 3.40795 14.909 3.88895 14.745 4.26895C12.9261 3.99719 11.0769 3.99719 9.25799 4.26895C9.07533 3.84781 8.86934 3.43717 8.64099 3.03895C8.63325 3.02533 8.62154 3.0144 8.60743 3.00761C8.59331 3.00082 8.57746 2.9985 8.56199 3.00095C6.84799 3.29095 5.20799 3.80095 3.67699 4.49195C3.66382 4.49747 3.65265 4.5069 3.64499 4.51895C0.532992 9.09395 -0.320008 13.556 0.0989923 17.962C0.100158 17.9727 0.103508 17.9832 0.108837 17.9926C0.114167 18.0021 0.121364 18.0104 0.129992 18.017C1.94638 19.3394 3.97233 20.3468 6.12299 20.997C6.13798 21.0016 6.15402 21.0016 6.16901 20.9969C6.18399 20.9923 6.19723 20.9832 6.20699 20.9709C6.66899 20.3509 7.08099 19.6959 7.43299 19.0079C7.45399 18.9679 7.43399 18.9199 7.39199 18.9039C6.746 18.6607 6.12008 18.3671 5.51999 18.0259C5.50921 18.0198 5.50012 18.0111 5.49355 18.0005C5.48698 17.99 5.48312 17.978 5.48233 17.9656C5.48153 17.9532 5.48383 17.9408 5.48901 17.9295C5.49418 17.9183 5.50208 17.9084 5.51199 17.9009C5.63799 17.8079 5.76399 17.711 5.88399 17.614C5.89479 17.6052 5.9078 17.5997 5.92158 17.5979C5.93535 17.5961 5.94934 17.5982 5.96199 17.604C9.88899 19.368 14.142 19.368 18.023 17.604C18.0357 17.5979 18.0498 17.5955 18.0638 17.5971C18.0778 17.5987 18.091 17.6042 18.102 17.6129C18.222 17.7109 18.347 17.8079 18.474 17.9009C18.484 17.9083 18.492 17.918 18.4974 17.9292C18.5027 17.9403 18.5052 17.9527 18.5046 17.9651C18.504 17.9774 18.5004 17.9895 18.494 18.0001C18.4876 18.0107 18.4787 18.0196 18.468 18.0259C17.87 18.3699 17.248 18.661 16.595 18.903C16.585 18.9066 16.5758 18.9123 16.5682 18.9198C16.5606 18.9272 16.5546 18.9362 16.5507 18.9462C16.5468 18.9561 16.5451 18.9668 16.5457 18.9774C16.5463 18.9881 16.5491 18.9985 16.554 19.0079C16.914 19.695 17.326 20.3489 17.779 20.9699C17.7884 20.9827 17.8015 20.9922 17.8166 20.9972C17.8316 21.0022 17.8478 21.0025 17.863 20.9979C20.0173 20.3496 22.0466 19.3417 23.865 18.017C23.8739 18.0107 23.8813 18.0027 23.8868 17.9934C23.8923 17.9841 23.8958 17.9737 23.897 17.9629C24.397 12.8689 23.059 8.44295 20.348 4.52095C20.3413 4.5082 20.3303 4.49827 20.317 4.49295ZM8.01999 15.2789C6.83799 15.2789 5.86299 14.2099 5.86299 12.8989C5.86299 11.5869 6.81899 10.5189 8.01999 10.5189C9.22999 10.5189 10.196 11.5959 10.177 12.8989C10.177 14.2109 9.22099 15.2789 8.01999 15.2789ZM15.995 15.2789C14.812 15.2789 13.838 14.2099 13.838 12.8989C13.838 11.5869 14.793 10.5189 15.995 10.5189C17.205 10.5189 18.171 11.5959 18.152 12.8989C18.152 14.2109 17.206 15.2789 15.995 15.2789Z" fill="#404040"/>
</g>
<defs>
<clipPath id="clip0_1_162">
<rect width="24" height="24" fill="white"/>
</clipPath>
</defs>
</svg>
