<svg width="24" height="24" viewBox="0 0 24 24" fill="none" xmlns="http://www.w3.org/2000/svg">
<path d="M20.9471 8.30447C20.937 7.54709 20.7952 6.79724 20.5281 6.08847C20.2964 5.49062 19.9426 4.94767 19.4892 4.4943C19.0359 4.04093 18.4929 3.68712 17.8951 3.45547C17.1954 3.19283 16.4562 3.05081 15.7091 3.03547C14.7471 2.99247 14.4421 2.98047 12.0001 2.98047C9.55807 2.98047 9.24507 2.98047 8.29007 3.03547C7.54323 3.05092 6.80442 3.19294 6.10507 3.45547C5.50713 3.68696 4.96409 4.04071 4.5107 4.4941C4.05732 4.94749 3.70356 5.49053 3.47207 6.08847C3.2089 6.7876 3.06719 7.52658 3.05307 8.27347C3.01007 9.23647 2.99707 9.54147 2.99707 11.9835C2.99707 14.4255 2.99707 14.7375 3.05307 15.6935C3.06807 16.4415 3.20907 17.1795 3.47207 17.8805C3.70395 18.4782 4.05797 19.021 4.51151 19.4742C4.96505 19.9274 5.50813 20.281 6.10607 20.5125C6.8035 20.7857 7.54244 20.9378 8.29107 20.9625C9.25407 21.0055 9.55907 21.0185 12.0011 21.0185C14.4431 21.0185 14.7561 21.0185 15.7111 20.9625C16.4582 20.9478 17.1974 20.8061 17.8971 20.5435C18.4948 20.3116 19.0376 19.9576 19.4909 19.5043C19.9442 19.051 20.2982 18.5082 20.5301 17.9105C20.7931 17.2105 20.9341 16.4725 20.9491 15.7235C20.9921 14.7615 21.0051 14.4565 21.0051 12.0135C21.0031 9.57147 21.0031 9.26147 20.9471 8.30447ZM11.9941 16.6015C9.44007 16.6015 7.37107 14.5325 7.37107 11.9785C7.37107 9.42447 9.44007 7.35547 11.9941 7.35547C13.2202 7.35547 14.396 7.84253 15.263 8.70951C16.13 9.5765 16.6171 10.7524 16.6171 11.9785C16.6171 13.2046 16.13 14.3804 15.263 15.2474C14.396 16.1144 13.2202 16.6015 11.9941 16.6015ZM16.8011 8.26247C16.6595 8.2626 16.5192 8.23481 16.3884 8.18068C16.2575 8.12655 16.1386 8.04715 16.0385 7.94702C15.9384 7.8469 15.859 7.72801 15.8049 7.59716C15.7507 7.46631 15.7229 7.32607 15.7231 7.18447C15.7231 7.04297 15.7509 6.90286 15.8051 6.77213C15.8592 6.6414 15.9386 6.52262 16.0387 6.42256C16.1387 6.32251 16.2575 6.24314 16.3882 6.18899C16.519 6.13484 16.6591 6.10697 16.8006 6.10697C16.9421 6.10697 17.0822 6.13484 17.2129 6.18899C17.3436 6.24314 17.4624 6.32251 17.5625 6.42256C17.6625 6.52262 17.7419 6.6414 17.7961 6.77213C17.8502 6.90286 17.8781 7.04297 17.8781 7.18447C17.8781 7.78047 17.3961 8.26247 16.8011 8.26247Z" fill="#404040"/>
<path d="M11.994 14.9826C13.6525 14.9826 14.997 13.6381 14.997 11.9796C14.997 10.3211 13.6525 8.97656 11.994 8.97656C10.3355 8.97656 8.99097 10.3211 8.99097 11.9796C8.99097 13.6381 10.3355 14.9826 11.994 14.9826Z" fill="#404040"/>
</svg>
