<svg width="24" height="24" viewBox="0 0 24 24" fill="none" xmlns="http://www.w3.org/2000/svg">
<path d="M23.643 4.93757C22.808 5.30757 21.911 5.55757 20.968 5.67057C21.941 5.08836 22.669 4.17203 23.016 3.09257C22.1019 3.63555 21.1014 4.01776 20.058 4.22257C19.3564 3.47343 18.4271 2.97689 17.4143 2.81004C16.4016 2.64319 15.3621 2.81536 14.4572 3.29982C13.5524 3.78428 12.8328 4.55393 12.4102 5.48927C11.9875 6.42461 11.8855 7.47332 12.12 8.47257C10.2677 8.37956 8.45564 7.89811 6.80144 7.05947C5.14723 6.22083 3.68785 5.04373 2.51801 3.60457C2.11801 4.29457 1.88801 5.09457 1.88801 5.94657C1.88757 6.71356 2.07644 7.46881 2.43789 8.1453C2.79934 8.82179 3.32217 9.3986 3.96001 9.82457C3.22029 9.80103 2.49688 9.60115 1.85001 9.24157V9.30156C1.84994 10.3773 2.22204 11.4199 2.90319 12.2526C3.58434 13.0852 4.53258 13.6565 5.58701 13.8696C4.9008 14.0553 4.18135 14.0826 3.48301 13.9496C3.78051 14.8752 4.36001 15.6846 5.14038 16.2645C5.92075 16.8444 6.86293 17.1657 7.83501 17.1836C6.18484 18.479 4.1469 19.1817 2.04901 19.1786C1.67739 19.1787 1.30609 19.157 0.937012 19.1136C3.06649 20.4827 5.54535 21.2094 8.07701 21.2066C16.647 21.2066 21.332 14.1086 21.332 7.95257C21.332 7.75257 21.327 7.55056 21.318 7.35056C22.2293 6.69154 23.0159 5.87546 23.641 4.94057L23.643 4.93757Z" fill="#404040"/>
</svg>
