<svg width="80" height="80" viewBox="0 0 80 80" fill="none" xmlns="http://www.w3.org/2000/svg">
<path d="M75.5833 12.8333H67.1667V4.41667C67.1667 2.16667 65.3333 0.333336 63.0833 0.333336H62.9583C60.6667 0.333336 58.8333 2.16667 58.8333 4.41667V12.8333H50.4583C48.2083 12.8333 46.375 14.6667 46.3333 16.9167V17.0417C46.3333 19.3333 48.1667 21.1667 50.4583 21.1667H58.8333V29.5417C58.8333 31.7917 60.6667 33.6667 62.9583 33.625H63.0833C65.3333 33.625 67.1667 31.7917 67.1667 29.5417V21.1667H75.5833C77.8333 21.1667 79.6667 19.3333 79.6667 17.0833V16.9167C79.6667 14.6667 77.8333 12.8333 75.5833 12.8333ZM54.6667 29.5417V25.3333H50.4583C48.25 25.3333 46.1667 24.4583 44.5833 22.9167C43.0417 21.3333 42.1667 19.25 42.1667 16.9167C42.1667 15.4167 42.5833 14.0417 43.2917 12.8333H8.83333C4.25 12.8333 0.5 16.5833 0.5 21.1667V71.1667C0.5 75.75 4.25 79.5 8.83333 79.5H58.8333C63.4167 79.5 67.1667 75.75 67.1667 71.1667V36.6667C65.9167 37.375 64.5 37.8333 62.9167 37.8333C58.375 37.7917 54.6667 34.0833 54.6667 29.5417ZM54.5 71.1667H13C11.2917 71.1667 10.2917 69.2083 11.3333 67.8333L19.5833 56.875C20.4583 55.7083 22.1667 55.7917 23 56.9583L29.6667 67L40.5417 52.5C41.375 51.4167 43 51.375 43.8333 52.4583L56.125 67.7917C57.2083 69.1667 56.25 71.1667 54.5 71.1667V71.1667Z" fill="#C4C4C4"/>
</svg>
