<svg width="14" height="14" viewBox="0 0 14 14" fill="none" xmlns="http://www.w3.org/2000/svg">
<path d="M6.99998 0.333328C3.31998 0.333328 0.333313 3.32 0.333313 7C0.333313 10.68 3.31998 13.6667 6.99998 13.6667C10.68 13.6667 13.6666 10.68 13.6666 7C13.6666 3.32 10.68 0.333328 6.99998 0.333328ZM6.99998 10.3333C6.63331 10.3333 6.33331 10.0333 6.33331 9.66666V7C6.33331 6.63333 6.63331 6.33333 6.99998 6.33333C7.36665 6.33333 7.66665 6.63333 7.66665 7V9.66666C7.66665 10.0333 7.36665 10.3333 6.99998 10.3333ZM7.66665 5H6.33331V3.66666H7.66665V5Z" fill="#404040"/>
</svg>
